:SAMPLES-PER-SECOND 30
:FULLY-SPECIFIED
:DEGREES
275
root  -70.4619 35.8564 -14.608 17.3238 81.7166 11.279
RightUpLeg  -9.84285 -14.132 3.06515
RightLeg  31.7936 5.30982 2.82004
RightFoot  11.9872 -0.0977292 1.30828
RightToes  -44.5653 -0.255941 -0.339432
Spine  4.33602 1.08757 0.0822036
Spine1  7.48325 2.43066 -0.0177711
HEad  1.78829 -4.39804 7.08418
LeftShoulder1  0 -2.42657e-020 -4.95415e-022
LeftArm  -4.11091 -7.03558 -84.3718
LeftForeArm  99.5418 -79.3937 -71.86
LeftHand  -0.861255 -7.84969 12.1442
RightShoulder  0 2.42657e-020 1.07489e-018
RightArm  -5.55839 -4.79093 82.5166
RightForeArm  -176.868 73.2215 143.636
RightHand  -6.29545 18.4225 -37.1073
LeftUpLeg  -19.7687 -15.5262 -2.95486
LeftLeg  22.6282 -16.8848 -5.69648
LeftFoot  11.7849 0.373437 -3.61715
LeftToes  -40.4261 9.37529e-007 1.1992e-007
276
root  -70.0769 35.6003 -12.9695 1.4411 83.7635 -3.28084
RightUpLeg  -6.82312 -11.7502 1.01376
RightLeg  30.2852 -2.27163 -1.14603
RightFoot  6.05184 0.0313749 -0.215951
RightToes  -36.5573 -0.191582 -0.29486
Spine  4.65117 0.352618 0.864321
Spine1  7.81335 0.844341 1.47054
HEad  2.6856 -3.98062 7.07924
LeftShoulder1  0 -2.42657e-020 -4.95415e-022
LeftArm  -2.31247 -15.0854 -87.3099
LeftForeArm  100.123 -79.3067 -70.4092
LeftHand  -1.07219 -8.80476 13.4998
RightShoulder  0 2.42657e-020 1.07489e-018
RightArm  -9.23219 3.36868 83.0134
RightForeArm  176.929 74.0101 141.39
RightHand  -5.69328 17.4362 -35.5741
LeftUpLeg  -19.7102 -16.531 -1.58786
LeftLeg  26.2078 -25.0234 -9.95314
LeftFoot  15.1263 0.989275 -7.44054
LeftToes  -45.5953 9.37529e-007 1.1992e-007
277
root  -69.6617 34.9954 -11.407 -9.73358 82.5373 -13.1262
RightUpLeg  -4.03421 -15.5699 -3.70047
RightLeg  27.2482 -8.63534 -3.7505
RightFoot  2.43922 0.0146584 -0.310881
RightToes  -30.2526 -0.145664 -0.253718
Spine  4.84458 0.441643 1.21619
Spine1  7.95409 0.920061 2.19181
HEad  4.35896 -3.55394 7.2387
LeftShoulder1  0 -2.42657e-020 -4.95415e-022
LeftArm  -0.964842 -21.019 -88.5933
LeftForeArm  97.4633 -79.4245 -72.4374
LeftHand  -0.960606 -7.65826 13.9207
RightShoulder  0 2.42657e-020 1.07489e-018
RightArm  -12.006 14.2071 83.1973
RightForeArm  158.272 78.581 118.065
RightHand  -5.9831 17.3422 -37.4735
LeftUpLeg  -19.0399 -17.7239 -0.233395
LeftLeg  30.4373 -19.5471 -9.57822
LeftFoot  11.0584 0.413335 -4.26789
LeftToes  -22.1672 9.37529e-007 1.1992e-007
278
root  -69.3028 34.0774 -9.87939 -9.8656 77.5607 -12.1423
RightUpLeg  -3.35943 -17.3037 -9.37316
RightLeg  24.4829 -7.37648 -2.79436
RightFoot  5.20263 0.043658 -0.583288
RightToes  -34.5966 -0.17682 -0.28261
Spine  4.69831 1.46362 1.23618
Spine1  7.48725 2.90768 2.38133
HEad  7.80918 -3.15934 7.10157
LeftShoulder1  0 -2.42657e-020 -4.95415e-022
LeftArm  -0.91269 -25.2256 -88.7324
LeftForeArm  87.35 -79.4153 -72.3729
LeftHand  -0.520397 -5.23886 10.9824
RightShoulder  0 2.42657e-020 1.07489e-018
RightArm  -13.5639 24.8413 83.621
RightForeArm  109.636 78.7985 63.6707
RightHand  -6.55975 18.012 -39.4007
LeftUpLeg  -17.2508 -15.2305 1.09756
LeftLeg  34.1962 -13.2657 -7.70639
LeftFoot  -0.428046 0.00075688 0.202611
LeftToes  -12.6634 9.37529e-007 1.1992e-007
279
root  -69.0768 33.1472 -8.32491 -9.46826 73.1844 -11.0146
RightUpLeg  -4.63807 -14.1303 -14.0865
RightLeg  23.1472 -4.02492 -1.42354
RightFoot  6.11869 0.0365668 -0.306585
RightToes  -35.5416 -0.183882 -0.288577
Spine  4.65678 2.31494 1.15957
Spine1  7.26493 4.57189 2.37757
HEad  10.2171 -3.38485 7.29095
LeftShoulder1  0 -2.42657e-020 -4.95415e-022
LeftArm  -1.95482 -30.008 -90.2077
LeftForeArm  62.7753 -77.2054 -51.5559
LeftHand  -0.33852 -4.36893 8.50052
RightShoulder  0 2.42657e-020 1.07489e-018
RightArm  -15.7989 31.2668 84.8476
RightForeArm  85.3139 74.7124 40.4155
RightHand  -6.08493 17.0934 -38.5975
LeftUpLeg  -15.6431 -13.2796 2.78972
LeftLeg  37.0691 -8.854 -5.79707
LeftFoot  -9.84374 0.164567 1.91083
LeftToes  -12.1935 9.37529e-007 1.1992e-007
280
root  -68.8671 32.3408 -6.73617 -9.24194 72.9352 -10.5701
RightUpLeg  -4.95529 -13.877 -19.2475
RightLeg  22.0415 -4.63927 -1.53921
RightFoot  6.6863 0.0460478 -0.410679
RightToes  -32.4834 -0.161391 -0.26885
Spine  4.42963 1.74018 1.00252
Spine1  6.73213 3.4314 1.9733
HEad  11.6347 -3.27188 7.95893
LeftShoulder1  0 -2.42657e-020 -4.95415e-022
LeftArm  -3.51382 -33.487 -92.064
LeftForeArm  42.2068 -73.1188 -35.8163
LeftHand  -0.127473 -1.96052 7.09472
RightShoulder  0 2.42657e-020 1.07489e-018
RightArm  -17.0875 30.927 84.7914
RightForeArm  87.0025 76.3 46.7163
RightHand  -5.74195 16.5291 -37.739
LeftUpLeg  -15.159 -14.2555 4.68014
LeftLeg  39.7055 -7.35276 -5.32198
LeftFoot  -15.3113 0.335888 2.49845
LeftToes  -18.9449 9.37529e-007 1.1992e-007
281
root  -68.6072 31.716 -5.00812 -10.1017 73.6356 -10.8954
RightUpLeg  -3.76291 -14.5681 -23.7943
RightLeg  20.3334 -8.7549 -2.60567
RightFoot  5.25894 0.0478426 -0.664086
RightToes  -29.9756 -0.143753 -0.251796
Spine  4.58214 0.715209 1.05589
Spine1  6.98736 1.39322 1.89275
HEad  13.7307 -3.20024 8.22053
LeftShoulder1  0 -2.42657e-020 -4.95415e-022
LeftArm  -6.55581 -33.2202 -93.9688
LeftForeArm  28.3509 -71.737 -32.5159
LeftHand  0.00409525 0.092642 4.36452
RightShoulder  0 2.42657e-020 1.07489e-018
RightArm  -16.5579 23.6302 82.5358
RightForeArm  138.778 79.8756 95.075
RightHand  -6.31873 15.8509 -42.9016
LeftUpLeg  -16.737 -13.1938 7.25469
LeftLeg  45.9934 -7.70186 -6.96195
LeftFoot  -17.5029 0.493715 3.20636
LeftToes  -23.7098 9.37529e-007 1.1992e-007
282
root  -68.3049 31.1941 -3.18987 -10.6791 73.0025 -11.2851
RightUpLeg  -3.62978 -15.9846 -27.2994
RightLeg  18.9375 -10.7109 -2.89932
RightFoot  1.02744 0.00337199 0.00147692
RightToes  -25.4241 -0.113713 -0.218938
Spine  4.40584 -0.259618 1.30081
Spine1  6.73202 -0.531592 2.15586
HEad  16.6846 -2.35482 7.00356
LeftShoulder1  0 -2.42657e-020 -4.95415e-022
LeftArm  -9.11743 -26.8137 -92.6652
LeftForeArm  39.0153 -76.2681 -46.6197
LeftHand  0.0437636 1.65562 2.64703
RightShoulder  0 2.42657e-020 1.07489e-018
RightArm  -13.2102 12.3446 78.9861
RightForeArm  -169.614 73.1942 143.765
RightHand  -6.40031 15.4434 -44.4645
LeftUpLeg  -15.244 -11.0947 10.5502
LeftLeg  46.8531 -8.86436 -8.23229
LeftFoot  -19.8582 0.730159 4.16932
LeftToes  -30.4835 9.37529e-007 1.1992e-007
283
root  -68.0256 30.7783 -1.25563 -8.03186 70.4346 -9.13252
RightUpLeg  -5.17882 -16.9475 -29.747
RightLeg  16.5054 -8.8282 -1.99842
RightFoot  -1.5778 0.00113913 0.460479
RightToes  -26.546 -0.120874 -0.227258
Spine  3.95952 -0.968427 1.25534
Spine1  6.18685 -1.9034 1.95612
HEad  19.4209 0.224182 5.77504
LeftShoulder1  0 -2.42657e-020 -4.95415e-022
LeftArm  -8.25509 -16.8299 -88.914
LeftForeArm  95.3067 -79.6133 -103.49
LeftHand  0.00515204 -0.225912 -3.07743
RightShoulder  0 2.42657e-020 1.07489e-018
RightArm  -4.47488 1.22205 74.2399
RightForeArm  -155.643 65.2503 157.125
RightHand  -6.79558 16.7878 -43.4811
LeftUpLeg  -12.2598 -10.4732 13.1084
LeftLeg  44.7932 -8.22682 -7.12427
LeftFoot  -21.7072 0.774262 4.03668
LeftToes  -34.9132 9.37529e-007 1.1992e-007
284
root  -67.8024 30.4612 0.89552 -6.37683 65.6919 -7.15073
RightUpLeg  -8.09645 -12.1048 -30.3249
RightLeg  15.9714 -8.52231 -1.84668
RightFoot  -5.09751 0.0268865 0.981685
RightToes  -23.9132 -0.10433 -0.207516
Spine  4.0874 -1.02912 1.14482
Spine1  6.65977 -2.1052 1.82654
HEad  21.7586 2.96483 5.77964
LeftShoulder1  0 -2.42657e-020 -4.95415e-022
LeftArm  0.578148 -7.11859 -84.6711
LeftForeArm  124.958 -74.9999 -138.171
LeftHand  0.013786 -0.172875 -9.88492
RightShoulder  0 2.42657e-020 1.07489e-018
RightArm  8.27326 -6.84016 68.9239
RightForeArm  -151.088 64.8247 157.607
RightHand  -7.52799 15.3765 -51.6122
LeftUpLeg  -6.76849 -8.6819 15.3605
LeftLeg  41.463 -6.57617 -5.07861
LeftFoot  -22.1013 0.598337 3.063
LeftToes  -37.4854 9.37529e-007 1.1992e-007
285
root  -67.765 30.0712 3.16395 -5.06036 59.7891 -5.91705
RightUpLeg  -13.7579 -10.3622 -29.3777
RightLeg  18.5734 -6.95189 -1.84263
RightFoot  -6.46521 0.0373131 1.0383
RightToes  -28.2827 -0.132276 -0.239855
Spine  4.55005 -0.920809 1.30018
Spine1  7.73839 -2.05417 2.28509
HEad  22.3933 6.77071 3.57137
LeftShoulder1  0 -2.42657e-020 -4.95415e-022
LeftArm  4.87468 5.08918 -82.836
LeftForeArm  132.348 -70.5805 -149.483
LeftHand  0.293747 -2.89283 -11.9924
RightShoulder  0 2.42657e-020 1.07489e-018
RightArm  18.8432 -12.831 63.3465
RightForeArm  -141.022 62.0636 160.276
RightHand  -7.14894 10.7187 -66.9795
LeftUpLeg  -0.143462 -5.3272 18.3122
LeftLeg  36.4401 -5.70983 -3.66746
LeftFoot  -21.3022 0.439994 2.33922
LeftToes  -41.3246 9.37529e-007 1.1992e-007
286
root  -67.9277 29.5174 5.39351 -3.26593 55.9177 -4.6976
RightUpLeg  -19.9515 -12.1339 -27.8032
RightLeg  24.282 -5.31162 -1.99564
RightFoot  -8.11531 0.0465593 1.03397
RightToes  -28.8889 -0.136345 -0.24417
Spine  4.89584 -1.57607 1.69757
Spine1  8.63093 -3.40754 2.87909
HEad  20.8794 12.0529 -0.822857
LeftShoulder1  0 -2.42657e-020 -4.95415e-022
LeftArm  5.24343 13.7926 -85.3929
LeftForeArm  129.041 -73.6674 -142.393
LeftHand  0.318115 -5.09732 -7.5177
RightShoulder  0 2.42657e-020 1.07489e-018
RightArm  21.5526 -17.0471 58.7701
RightForeArm  -139.887 61.221 160.979
RightHand  -8.19002 13.3055 -62.7391
LeftUpLeg  4.98971 -3.07285 21.2375
LeftLeg  31.7673 -5.41552 -2.88708
LeftFoot  -19.5169 0.322404 1.87445
LeftToes  -45.8222 9.37529e-007 1.1992e-007
287
root  -68.2062 28.7933 7.47134 -0.658203 53.9171 -2.46283
RightUpLeg  -24.8112 -13.1611 -27.1542
RightLeg  30.4333 -1.26283 -0.645585
RightFoot  -6.75464 0.00180076 0.408105
RightToes  -42.5558 -0.239216 -0.3291
Spine  5.48997 -2.97245 1.61362
Spine1  9.86816 -6.18528 2.42069
HEad  18.4734 18.0887 -5.27816
LeftShoulder1  0 -2.42657e-020 -4.95415e-022
LeftArm  2.80909 17.8283 -87.0081
LeftForeArm  113.701 -77.9745 -123.091
LeftHand  0.109771 -3.19058 -4.31927
RightShoulder  0 2.42657e-020 1.07489e-018
RightArm  24.0086 -14.9337 58.6251
RightForeArm  -145.785 65.0467 157.404
RightHand  -8.39737 14.9818 -58.0008
LeftUpLeg  8.17797 -4.12296 22.1727
LeftLeg  29.2197 -2.91361 -1.39481
LeftFoot  -17.5748 0.118369 0.765707
LeftToes  -48.105 9.37529e-007 1.1992e-007
288
root  -68.728 27.9176 9.48949 0.978882 50.9532 -1.75946
RightUpLeg  -33.4113 -10.5602 -25.4094
RightLeg  42.8345 2.51264 2.01628
RightFoot  -4.44081 -0.013792 0.0218397
RightToes  -48.9562 -0.293685 -0.359929
Spine  6.33825 -2.92537 1.67245
Spine1  11.4594 -6.13686 2.3853
HEad  15.4962 20.5624 -8.88389
LeftShoulder1  0 -2.42657e-020 -4.95415e-022
LeftArm  1.87524 15.312 -88.1757
LeftForeArm  57.5057 -78.8706 -64.6979
LeftHand  0.100059 -3.54385 -3.61055
RightShoulder  0 2.42657e-020 1.07489e-018
RightArm  24.9888 -11.7339 60.2737
RightForeArm  -155.728 69.7387 151.073
RightHand  -7.92361 14.3529 -57.2768
LeftUpLeg  9.74668 -6.56955 22.6231
LeftLeg  30.4766 2.4106 1.21309
LeftFoot  -15.8552 -0.135455 -0.97272
LeftToes  -47.9213 9.37529e-007 1.1992e-007
